<svg height="512pt" viewBox="-136 0 512 512" width="512pt" xmlns="http://www.w3.org/2000/svg"><path d="m75 241c16.347656 0 32.117188-5.355469 45-15.019531 12.882812 9.664062 28.652344 15.019531 45 15.019531 41.355469 0 75-33.644531 75-75 0-36.21875-25.808594-66.523438-60-73.492188v-77.507812c0-8.285156-6.714844-15-15-15h-90c-8.285156 0-15 6.714844-15 15v77.507812c-34.191406 6.96875-60 37.273438-60 73.492188 0 41.355469 33.644531 75 75 75zm0-120c8.285156 0 15-6.714844 15-15v-76h60v76c0 8.285156 6.714844 15 15 15 24.8125 0 45 20.1875 45 45s-20.1875 45-45 45c-12.894531 0-25.199219-5.5625-33.75-15.257812-2.847656-3.226563-6.945312-5.078126-11.25-5.078126s-8.402344 1.851563-11.25 5.078126c-8.550781 9.695312-20.855469 15.257812-33.75 15.257812-24.8125 0-45-20.1875-45-45s20.1875-45 45-45zm0 0"/><path d="m165 271c-16.347656 0-32.117188 5.355469-45 15.019531-12.882812-9.664062-28.652344-15.019531-45-15.019531-41.355469 0-75 33.644531-75 75 0 36.21875 25.808594 66.523438 60 73.492188v77.507812c0 8.285156 6.714844 15 15 15h90c8.285156 0 15-6.714844 15-15v-77.507812c34.191406-6.96875 60-37.273438 60-73.492188 0-41.355469-33.644531-75-75-75zm0 120c-8.285156 0-15 6.714844-15 15v76h-60v-76c0-8.285156-6.714844-15-15-15-24.8125 0-45-20.1875-45-45s20.1875-45 45-45c12.894531 0 25.199219 5.5625 33.75 15.257812 2.847656 3.226563 6.945312 5.078126 11.25 5.078126s8.402344-1.851563 11.25-5.078126c8.550781-9.695312 20.855469-15.257812 33.75-15.257812 24.8125 0 45 20.1875 45 45s-20.1875 45-45 45zm0 0"/></svg>