<?xml version="1.0"?>
<svg xmlns="http://www.w3.org/2000/svg" id="Outline" viewBox="0 0 64 64" width="512" height="512"><title>Fat icon</title><desc>Fat icon for website, application, printing, document, poster design, etc.</desc><metadata><?xpacket begin="﻿" id="W5M0MpCehiHzreSzNTczkc9d"?><x:xmpmeta xmlns:x="adobe:ns:meta/" x:xmptk="Adobe XMP Core 5.6-c145 79.163499, 2018/08/13-16:40:22        "><rdf:RDF xmlns:rdf="http://www.w3.org/1999/02/22-rdf-syntax-ns#"><rdf:Description xmlns:dc="http://purl.org/dc/elements/1.1/" rdf:about=""><dc:title><rdf:Alt><rdf:li xml:lang="x-default">Fat icon</rdf:li></rdf:Alt></dc:title><dc:description><rdf:Alt><rdf:li xml:lang="x-default">Fat icon for website, application, printing, document, poster design, etc.</rdf:li></rdf:Alt></dc:description><dc:subject><rdf:Bag><rdf:li xml:lang="x-default">Fat</rdf:li><rdf:li>body</rdf:li><rdf:li>anatomy</rdf:li><rdf:li>fitness</rdf:li><rdf:li>healthcare</rdf:li><rdf:li>healthy</rdf:li><rdf:li>medical</rdf:li></rdf:Bag></dc:subject></rdf:Description></rdf:RDF></x:xmpmeta><?xpacket end="w"?></metadata><path d="M56,30a23.89,23.89,0,0,0-1.87-9.31A28.35,28.35,0,0,1,52,9.61V3a1,1,0,0,0-2,0V9.61a33.7,33.7,0,0,0,.37,5,24.1,24.1,0,0,0-4.8-4.38,1,1,0,0,0-1.39.26,1,1,0,0,0,.25,1.39,22.11,22.11,0,0,1,7.81,9.54l0,.05v0A21.81,21.81,0,0,1,54,30v3A19,19,0,0,1,35,52H29A19,19,0,0,1,10,33V30a21.81,21.81,0,0,1,1.72-8.53v0l0-.06a22.11,22.11,0,0,1,7.81-9.54,1,1,0,0,0,.25-1.39,1,1,0,0,0-1.39-.26,24.1,24.1,0,0,0-4.8,4.38,33.7,33.7,0,0,0,.37-5V3a1,1,0,0,0-2,0V9.61A28.42,28.42,0,0,1,9.87,20.69,23.89,23.89,0,0,0,8,30v3a20.89,20.89,0,0,0,4,12.23L10,60.88A1,1,0,0,0,10.88,62H11a1,1,0,0,0,1-.88l1.72-13.77A20.94,20.94,0,0,0,29,54h6a20.94,20.94,0,0,0,15.29-6.65L52,61.12A1,1,0,0,0,53,62h.12A1,1,0,0,0,54,60.88L52,45.23A20.89,20.89,0,0,0,56,33Z"/><path d="M30,43a1,1,0,0,0,1-1,1,1,0,0,1,2,0,1,1,0,0,0,2,0,3,3,0,0,0-6,0A1,1,0,0,0,30,43Z"/><path d="M19.36,24.23l-6,5a1,1,0,0,0,0,1.54l6,5A1,1,0,0,0,20,36a1,1,0,0,0,.42-.09A1,1,0,0,0,21,35V33h3a1,1,0,0,0,0-2H20a1,1,0,0,0-1,1v.86L15.56,30,19,27.14V28a1,1,0,0,0,1,1h4a1,1,0,0,0,0-2H21V25a1,1,0,0,0-1.64-.77Z"/><path d="M44,31H40a1,1,0,0,0,0,2h3v2a1,1,0,0,0,.58.91A1,1,0,0,0,44,36a1,1,0,0,0,.64-.23l6-5a1,1,0,0,0,0-1.54l-6-5A1,1,0,0,0,43,25v2H40a1,1,0,0,0,0,2h4a1,1,0,0,0,1-1v-.86L48.44,30,45,32.86V32A1,1,0,0,0,44,31Z"/><path d="M32,62a1,1,0,0,1-1-1V58a1,1,0,0,1,2,0v3A1,1,0,0,1,32,62Z"/></svg>
