<svg height="512pt" viewBox="-30 0 512 512.00031" width="512pt" xmlns="http://www.w3.org/2000/svg"><path d="m300.976562 512h-4.960937c-24.738281 0-45.328125-19.339844-46.875-44.03125l-6.234375-99.6875c-.558594-8.917969-7.992188-15.90625-16.929688-15.90625s-16.375 6.988281-16.933593 15.90625l-6.234375 99.6875c-1.542969 24.691406-22.132813 44.03125-46.871094 44.03125h-4.960938c-22.8125 0-42.261718-16.304688-46.246093-38.765625l-36.976563-208.617187c-42.613281-26.375-68.394531-73.042969-67.7421872-123.5.4960932-38.5 15.9062502-74.355469 43.3828122-100.957032 27.507813-26.628906 63.898438-40.878906 102.4375-40.128906 28.78125.558594 56.808594 9.894531 80.144531 26.511719 23.335938-16.621094 51.359376-25.953125 80.144532-26.5156252 38.5625-.7499998 74.925781 13.5039062 102.433594 40.1328122 27.480468 26.601563 42.886718 62.457032 43.382812 100.957032.652344 50.457031-25.128906 97.125-67.738281 123.5l-36.980469 208.617187c-3.980469 22.464844-23.429688 38.765625-46.242188 38.765625zm-75-189.625c24.738282 0 45.328126 19.34375 46.871094 44.035156l6.234375 99.683594c.558594 8.921875 7.996094 15.90625 16.933594 15.90625h4.960937c8.238282 0 15.265626-5.886719 16.703126-14l39.441406-222.5 6.277344-3.460938c36.652343-20.199218 59.082031-58.722656 58.542968-100.535156-.394531-30.449218-12.558594-58.785156-34.253906-79.789062-21.722656-21.03125-50.488281-32.285156-80.984375-31.691406-25.996094.507812-51.207031 10.074218-71 26.941406l-9.726563 8.289062-9.730468-8.292968c-19.789063-16.863282-45.003906-26.429688-71-26.9375-30.519532-.589844-59.261719 10.660156-80.984375 31.691406-21.695313 21.003906-33.859375 49.339844-34.253907 79.789062-.539062 41.8125 21.890626 80.335938 58.542969 100.535156l6.277344 3.460938 39.441406 222.5c1.441407 8.109375 8.464844 14 16.707031 14h4.957032c8.9375 0 16.375-6.988281 16.933594-15.90625l6.234374-99.683594c1.546876-24.691406 22.132813-44.035156 46.875-44.035156zm0 0"/></svg>